<?xml version="1.0" encoding="UTF-8"?>
<svg xmlns="http://www.w3.org/2000/svg" xmlns:xlink="http://www.w3.org/1999/xlink" width="64pt" height="64pt" viewBox="0 0 64 64" version="1.1">
<g id="surface7460717">
<path style=" stroke:none;fill-rule:nonzero;fill:rgb(98.823529%,95.686275%,95.686275%);fill-opacity:1;" d="M 32 64 C 14.328125 64 0 49.671875 0 32 C 0 14.328125 14.328125 0 32 0 C 49.671875 0 64 14.328125 64 32 C 64 49.671875 49.671875 64 32 64 Z M 32 64 "/>
<path style=" stroke:none;fill-rule:nonzero;fill:rgb(100%,100%,100%);fill-opacity:1;" d="M 49.949219 49.953125 C 49.03125 50.875 47.511719 50.875 46.550781 49.953125 L 41.472656 44.875 C 40.554688 43.957031 40.554688 42.4375 41.472656 41.476562 C 42.394531 40.558594 43.914062 40.558594 44.871094 41.476562 L 49.949219 46.554688 C 50.871094 47.515625 50.871094 49.035156 49.949219 49.953125 Z M 49.949219 49.953125 "/>
<path style=" stroke:none;fill-rule:nonzero;fill:rgb(100%,100%,100%);fill-opacity:1;" d="M 17.414062 17.441406 C 11.949219 22.90625 11.949219 31.765625 17.417969 37.234375 C 22.882812 42.699219 31.742188 42.699219 37.207031 37.234375 C 42.671875 31.765625 42.671875 22.90625 37.207031 17.441406 C 31.742188 11.976562 22.882812 11.976562 17.414062 17.441406 Z M 17.414062 17.441406 "/>
<path style=" stroke:none;fill-rule:nonzero;fill:rgb(100%,100%,100%);fill-opacity:1;" d="M 17.414062 17.441406 C 11.949219 22.90625 11.949219 31.765625 17.417969 37.234375 C 22.882812 42.699219 31.742188 42.699219 37.207031 37.234375 C 42.671875 31.765625 42.671875 22.90625 37.207031 17.441406 C 31.742188 11.976562 22.882812 11.976562 17.414062 17.441406 Z M 17.414062 17.441406 "/>
<path style=" stroke:none;fill-rule:nonzero;fill:rgb(44.313725%,76.078431%,100%);fill-opacity:1;" d="M 27.320312 40.117188 C 26.640625 40.117188 26.117188 39.597656 26.117188 38.917969 C 26.117188 38.238281 26.640625 37.71875 27.320312 37.71875 C 30.078125 37.71875 32.714844 36.636719 34.675781 34.679688 C 37.234375 32.121094 38.273438 28.480469 37.433594 24.921875 C 37.273438 24.28125 37.675781 23.644531 38.316406 23.484375 C 38.953125 23.324219 39.59375 23.722656 39.753906 24.363281 C 40.792969 28.722656 39.554688 33.238281 36.394531 36.398438 C 33.957031 38.796875 30.757812 40.117188 27.320312 40.117188 Z M 35.59375 20.402344 C 35.277344 20.402344 34.996094 20.285156 34.757812 20.042969 L 34.675781 20.003906 C 34.195312 19.523438 34.195312 18.765625 34.675781 18.324219 C 35.15625 17.84375 35.914062 17.84375 36.355469 18.324219 L 36.433594 18.40625 C 36.914062 18.882812 36.914062 19.644531 36.433594 20.085938 C 36.195312 20.285156 35.914062 20.402344 35.59375 20.402344 Z M 35.59375 20.402344 "/>
<path style=" stroke:none;fill-rule:nonzero;fill:rgb(26.666667%,29.411765%,32.941176%);fill-opacity:1;" d="M 27.320312 42.515625 C 23.441406 42.515625 19.519531 41.035156 16.5625 38.078125 C 10.644531 32.160156 10.644531 22.523438 16.5625 16.605469 C 22.480469 10.6875 32.117188 10.6875 38.035156 16.605469 C 43.992188 22.523438 43.992188 32.160156 38.074219 38.078125 C 35.117188 41.035156 31.238281 42.515625 27.320312 42.515625 Z M 27.320312 14.566406 C 24.039062 14.566406 20.761719 15.804688 18.28125 18.324219 C 13.285156 23.324219 13.285156 31.441406 18.28125 36.4375 C 23.28125 41.355469 31.398438 41.355469 36.394531 36.398438 C 41.394531 31.398438 41.394531 23.28125 36.394531 18.285156 C 33.875 15.804688 30.597656 14.566406 27.320312 14.566406 Z M 50.789062 45.714844 L 45.710938 40.636719 C 45.03125 39.957031 44.113281 39.597656 43.152344 39.597656 C 42.59375 39.597656 42.074219 39.71875 41.59375 39.957031 L 40.59375 38.957031 C 40.113281 38.476562 39.355469 38.476562 38.914062 38.957031 C 38.433594 39.4375 38.433594 40.195312 38.914062 40.636719 L 39.914062 41.636719 C 39.675781 42.117188 39.554688 42.636719 39.554688 43.195312 C 39.554688 44.15625 39.914062 45.074219 40.59375 45.753906 L 45.710938 50.792969 C 46.433594 51.511719 47.351562 51.832031 48.269531 51.832031 C 49.191406 51.832031 50.109375 51.472656 50.832031 50.792969 C 52.191406 49.394531 52.191406 47.113281 50.789062 45.714844 Z M 49.109375 49.113281 C 48.632812 49.59375 47.871094 49.59375 47.429688 49.113281 L 42.3125 44.035156 C 42.074219 43.796875 41.953125 43.515625 41.953125 43.195312 C 41.953125 42.875 42.074219 42.554688 42.3125 42.355469 C 42.554688 42.117188 42.832031 41.996094 43.152344 41.996094 C 43.472656 41.996094 43.792969 42.117188 43.992188 42.355469 L 49.070312 47.433594 C 49.589844 47.875 49.589844 48.632812 49.109375 49.113281 Z M 49.109375 49.113281 "/>
</g>
</svg>
